<svg width="124" height="228" viewBox="0 0 124 228" fill="none" xmlns="http://www.w3.org/2000/svg">
<g id="Screen">
<path id="Vector" d="M49.2451 0.749329H43.6024V1.65889H49.2451V0.749329Z" fill="#4CAF4F"/>
<path id="Vector_2" d="M122.291 36.7489L121.608 51.9045L122.516 51.9455L123.199 36.7898L122.291 36.7489Z" fill="#4CAF4F"/>
<path id="Vector_3" d="M120.535 4.8291H16.3333L6.63721 221.816H110.839L120.535 4.8291Z" fill="#4CAF4F"/>
<path id="Vector_4" opacity="0.56" d="M117.427 7.81384H13.2249L3.52887 224.801H107.731L117.427 7.81384Z" fill="#FAFAFA"/>
<path id="Vector_5" opacity="0.07" d="M114.318 10.7898H10.1165L0.411621 227.777H104.613L114.318 10.7898Z" fill="#4CAF4F"/>
<path id="Vector_6" d="M102.459 105.428H13.5163L12.7745 122.03H101.717L102.459 105.428Z" fill="white"/>
<path id="Vector_7" d="M62.4293 93.3123H14.055L13.7283 100.739H62.1026L62.4293 93.3123Z" fill="#4CAF4F"/>
<path id="Vector_8" d="M100.454 150.235H11.5117L10.77 166.836H99.7123L100.454 150.235Z" fill="white"/>
<path id="Vector_9" opacity="0.47" d="M84.1439 189.257H24.3338L23.442 209.153H83.252L84.1439 189.257Z" fill="#4CAF4F"/>
<path id="Vector_10" d="M80.1436 212.244H20.3336C20.3075 212.25 20.2802 212.25 20.2541 212.244C20.2454 212.218 20.2454 212.19 20.2541 212.164L21.1372 192.26C21.1371 192.246 21.1399 192.233 21.1453 192.22C21.1507 192.208 21.1587 192.197 21.1687 192.188C21.1787 192.179 21.1904 192.172 21.2033 192.167C21.2161 192.163 21.2297 192.161 21.2431 192.163H81.0532C81.0642 192.157 81.0763 192.154 81.0885 192.154C81.1008 192.154 81.1129 192.157 81.1239 192.163C81.1301 192.173 81.1333 192.186 81.1333 192.198C81.1333 192.21 81.1301 192.223 81.1239 192.233L80.2584 212.182C80.2478 212.202 80.2312 212.219 80.2107 212.231C80.1902 212.242 80.1668 212.246 80.1436 212.244ZM20.4396 212.032H80.0377L80.9207 192.339H21.3226L20.4396 212.032Z" fill="white"/>
<path id="Vector_11" d="M51.9827 138.119H12.0504L11.7237 145.554H51.6471L51.9827 138.119Z" fill="#4CAF4F"/>
<path id="Vector_12" d="M83.0047 51.7993C82.7765 56.6309 81.0583 61.2734 78.0861 65.0895C75.8859 67.9719 73.0545 70.312 69.8093 71.93C66.564 73.548 62.9912 74.401 59.3651 74.4235C56.4348 74.4458 53.5309 73.868 50.8324 72.7256C48.1339 71.5832 45.6978 69.9004 43.6743 67.7809C41.6507 65.6614 40.0825 63.15 39.0663 60.4015C38.0501 57.6529 37.6073 54.7255 37.7653 51.7993C38.0759 45.7274 40.6943 40.0034 45.0852 35.798C49.4761 31.5927 55.3076 29.2235 61.3873 29.1752C64.3198 29.1478 67.2268 29.7221 69.9286 30.8626C72.6304 32.003 75.0696 33.6853 77.0956 35.8057C79.1216 37.926 80.6913 40.4392 81.7076 43.1901C82.724 45.941 83.1654 48.8711 83.0047 51.7993Z" fill="white"/>
<path id="Vector_13" d="M85.1329 33.9085C85.0753 35.1932 84.6185 36.4279 83.826 37.4407C83.2396 38.2063 82.4861 38.8278 81.623 39.2579C80.7598 39.6879 79.8098 39.9151 78.8455 39.9221C77.9112 39.9278 76.9897 39.7046 76.1616 39.2721C75.3334 38.8395 74.6238 38.2108 74.0946 37.4407C73.3939 36.4002 73.0471 35.1616 73.1056 33.9085C73.191 32.2963 73.8881 30.7775 75.0548 29.6617C76.2215 28.5459 77.7699 27.9171 79.3842 27.9036C80.163 27.8965 80.935 28.0489 81.6526 28.3515C82.3703 28.6541 83.0183 29.1005 83.5569 29.663C84.0955 30.2256 84.5132 30.8925 84.7842 31.6227C85.0553 32.3528 85.174 33.1307 85.1329 33.9085Z" fill="#4CAF4F"/>
<path id="Vector_14" d="M23.0975 113.729C23.0551 114.44 22.7445 115.109 22.2283 115.601C21.7121 116.093 21.0287 116.37 20.3159 116.378C19.9717 116.382 19.6304 116.316 19.3129 116.182C18.9955 116.049 18.7087 115.853 18.4704 115.604C18.232 115.356 18.0471 115.061 17.9271 114.739C17.8071 114.416 17.7545 114.072 17.7727 113.729C17.8109 113.016 18.1203 112.344 18.6374 111.852C19.1545 111.359 19.8402 111.083 20.5543 111.08C20.8981 111.077 21.2389 111.144 21.5557 111.278C21.8726 111.411 22.1588 111.608 22.3969 111.856C22.635 112.104 22.82 112.398 22.9405 112.72C23.0609 113.042 23.1144 113.385 23.0975 113.729Z" fill="#263238"/>
<path id="Vector_15" d="M35.0013 113.729C34.961 114.441 34.651 115.111 34.1343 115.603C33.6177 116.095 32.9331 116.372 32.2197 116.378C31.8762 116.381 31.5358 116.313 31.2194 116.18C30.903 116.046 30.6174 115.849 30.3799 115.601C30.1425 115.353 29.9584 115.059 29.8389 114.737C29.7195 114.415 29.6672 114.072 29.6853 113.729C29.7234 113.017 30.0316 112.347 30.5468 111.855C31.062 111.362 31.7455 111.085 32.4581 111.08C32.8023 111.075 33.1436 111.142 33.461 111.275C33.7785 111.408 34.0653 111.605 34.3036 111.853C34.542 112.101 34.7269 112.396 34.8469 112.719C34.9669 113.041 35.0195 113.385 35.0013 113.729Z" fill="#263238"/>
<path id="Vector_16" d="M46.9139 113.729C46.8735 114.441 46.5635 115.111 46.0469 115.603C45.5302 116.095 44.8456 116.372 44.1322 116.378C43.7884 116.381 43.4476 116.313 43.1308 116.18C42.8139 116.046 42.5277 115.85 42.2896 115.601C42.0515 115.353 41.8665 115.059 41.7461 114.737C41.6256 114.415 41.5721 114.072 41.589 113.729C41.6293 113.016 41.9393 112.346 42.456 111.854C42.9726 111.362 43.6572 111.085 44.3706 111.08C44.7148 111.075 45.0561 111.142 45.3736 111.275C45.691 111.408 45.9778 111.605 46.2162 111.853C46.4545 112.101 46.6394 112.396 46.7594 112.719C46.8794 113.041 46.932 113.385 46.9139 113.729Z" fill="#263238"/>
<path id="Vector_17" d="M21.093 158.536C21.0506 159.247 20.74 159.916 20.2238 160.408C19.7075 160.899 19.0242 161.177 18.3113 161.185C17.9675 161.188 17.6268 161.12 17.3099 160.987C16.9931 160.853 16.7068 160.656 16.4687 160.408C16.2306 160.16 16.0457 159.866 15.9252 159.544C15.8047 159.222 15.7513 158.879 15.7681 158.536C15.8085 157.823 16.1185 157.153 16.6351 156.661C17.1517 156.169 17.8363 155.892 18.5498 155.886C18.8936 155.883 19.2343 155.951 19.5512 156.084C19.868 156.218 20.1543 156.415 20.3924 156.663C20.6305 156.911 20.8154 157.205 20.9359 157.527C21.0564 157.849 21.1098 158.192 21.093 158.536Z" fill="#263238"/>
<path id="Vector_18" d="M32.9967 158.536C32.9565 159.246 32.6477 159.915 32.133 160.407C31.6182 160.899 30.9358 161.177 30.2239 161.185C29.8797 161.189 29.5384 161.122 29.2209 160.989C28.9035 160.856 28.6167 160.659 28.3784 160.411C28.14 160.163 27.9551 159.868 27.8351 159.546C27.7151 159.223 27.6625 158.879 27.6807 158.536C27.721 157.823 28.031 157.153 28.5477 156.661C29.0643 156.169 29.7489 155.892 30.4623 155.886C30.8058 155.883 31.1462 155.951 31.4625 156.084C31.7789 156.218 32.0646 156.415 32.3021 156.663C32.5395 156.911 32.7236 157.206 32.8431 157.528C32.9625 157.85 33.0148 158.193 32.9967 158.536Z" fill="#263238"/>
<path id="Vector_19" d="M44.9358 158.536C44.8954 159.248 44.5854 159.918 44.0688 160.41C43.5521 160.902 42.8676 161.179 42.1541 161.185C41.8107 161.186 41.4705 161.118 41.1542 160.984C40.838 160.85 40.5522 160.653 40.3144 160.406C40.0765 160.158 39.8915 159.864 39.7706 159.543C39.6497 159.221 39.5953 158.879 39.6109 158.536C39.6533 157.824 39.9639 157.155 40.4801 156.663C40.9963 156.172 41.6797 155.894 42.3925 155.886C42.7367 155.882 43.0781 155.949 43.3955 156.082C43.7129 156.215 43.9997 156.412 44.2381 156.66C44.4764 156.908 44.6613 157.203 44.7813 157.525C44.9014 157.848 44.9539 158.192 44.9358 158.536Z" fill="#263238"/>
<path id="Vector_20" d="M56.8219 158.536C56.7795 159.247 56.4688 159.916 55.9526 160.408C55.4364 160.899 54.753 161.177 54.0402 161.185C53.6968 161.186 53.3566 161.118 53.0403 160.984C52.7241 160.85 52.4384 160.653 52.2005 160.405C51.9627 160.158 51.7777 159.864 51.6567 159.543C51.5358 159.221 51.4814 158.879 51.497 158.536C51.5394 157.824 51.85 157.155 52.3662 156.663C52.8824 156.172 53.5658 155.894 54.2787 155.886C54.6225 155.883 54.9632 155.951 55.2801 156.084C55.5969 156.218 55.8831 156.415 56.1213 156.663C56.3594 156.911 56.5443 157.205 56.6648 157.527C56.7853 157.849 56.8387 158.192 56.8219 158.536Z" fill="#263238"/>
<path id="Vector_21" d="M68.7786 158.536C68.7362 159.247 68.4255 159.916 67.9093 160.408C67.3931 160.899 66.7097 161.177 65.9969 161.185C65.6528 161.189 65.3114 161.122 64.994 160.989C64.6765 160.856 64.3897 160.659 64.1514 160.411C63.913 160.163 63.7281 159.868 63.6081 159.546C63.4881 159.223 63.4356 158.879 63.4537 158.536C63.4941 157.823 63.804 157.153 64.3207 156.661C64.8373 156.169 65.5219 155.892 66.2353 155.886C66.5792 155.883 66.9199 155.951 67.2368 156.084C67.5536 156.218 67.8398 156.415 68.078 156.663C68.3161 156.911 68.501 157.205 68.6215 157.527C68.742 157.849 68.7954 158.192 68.7786 158.536Z" fill="#263238"/>
<path id="Vector_22" d="M66.9713 50.621C70.6674 47.0066 70.8635 41.2131 67.4093 37.6809C63.9551 34.1486 58.1587 34.2153 54.4626 37.8297C50.7665 41.4442 50.5704 47.2377 54.0245 50.7699C57.4787 54.3021 63.2752 54.2355 66.9713 50.621Z" fill="#4CAF4F"/>
<path id="Vector_23" d="M78.0861 65.0895C75.8858 67.9719 73.0545 70.312 69.8092 71.93C66.564 73.548 62.9912 74.401 59.3651 74.4235C55.8488 74.4533 52.3792 73.6175 49.2622 71.9897C46.1452 70.3619 43.4767 67.9922 41.4918 65.0895C45.7835 60.8155 52.5743 58.025 60.098 58.025C67.6217 58.025 74.1741 60.8155 78.0861 65.0895Z" fill="#4CAF4F"/>
<path id="Vector_24" opacity="0.1" d="M66.9713 50.621C70.6674 47.0066 70.8635 41.2131 67.4093 37.6809C63.9551 34.1486 58.1587 34.2153 54.4626 37.8297C50.7665 41.4442 50.5704 47.2377 54.0245 50.7699C57.4787 54.3021 63.2752 54.2355 66.9713 50.621Z" fill="white"/>
<path id="Vector_25" opacity="0.1" d="M78.0861 65.0895C75.8858 67.9719 73.0545 70.312 69.8092 71.93C66.564 73.548 62.9912 74.401 59.3651 74.4235C55.8488 74.4533 52.3792 73.6175 49.2622 71.9897C46.1452 70.3619 43.4767 67.9922 41.4918 65.0895C45.7835 60.8155 52.5743 58.025 60.098 58.025C67.6217 58.025 74.1741 60.8155 78.0861 65.0895Z" fill="white"/>
</g>
</svg>
